{
  "accessors": [
    {
      "bufferView": 1,
      "componentType": 5126,
      "count": 9138,
      "max": [
        502.9921875,
        61.849998474121094,
        992.875
      ],
      "min": [
        44.8984375,
        0,
        33.375
      ],
      "type": "VEC3"
    },
    {
      "bufferView": 1,
      "byteOffset": 109656,
      "componentType": 5126,
      "count": 9138,
      "max": [
        0,
        1,
        0
      ],
      "min": [
        0,
        -1,
        0
      ],
      "type": "VEC3"
    },
    {
      "bufferView": 0,
      "componentType": 5125,
      "count": 23817,
      "max": [
        9137
      ],
      "min": [
        0
      ],
      "type": "SCALAR"
    },
    {
      "bufferView": 1,
      "byteOffset": 219312,
      "componentType": 5126,
      "count": 9350,
      "max": [
        737.4609375,
        61.849998474121094,
        1023.5
      ],
      "min": [
        121.1484375,
        0,
        35.46875
      ],
      "type": "VEC3"
    },
    {
      "bufferView": 1,
      "byteOffset": 331512,
      "componentType": 5126,
      "count": 9350,
      "max": [
        0,
        1,
        0
      ],
      "min": [
        0,
        -1,
        0
      ],
      "type": "VEC3"
    },
    {
      "bufferView": 0,
      "byteOffset": 95268,
      "componentType": 5125,
      "count": 24222,
      "max": [
        9349
      ],
      "min": [
        0
      ],
      "type": "SCALAR"
    },
    {
      "bufferView": 1,
      "byteOffset": 443712,
      "componentType": 5126,
      "count": 9560,
      "max": [
        1001.5859375,
        61.849998474121094,
        1036.46875
      ],
      "min": [
        41.6796875,
        34.862998962402344,
        156.28125
      ],
      "type": "VEC3"
    },
    {
      "bufferView": 1,
      "byteOffset": 558432,
      "componentType": 5126,
      "count": 9560,
      "max": [
        0,
        1,
        0
      ],
      "min": [
        0,
        -1,
        0
      ],
      "type": "VEC3"
    },
    {
      "bufferView": 0,
      "byteOffset": 192156,
      "componentType": 5125,
      "count": 23883,
      "max": [
        9559
      ],
      "min": [
        0
      ],
      "type": "SCALAR"
    },
    {
      "bufferView": 1,
      "byteOffset": 673152,
      "componentType": 5126,
      "count": 9516,
      "max": [
        936.515625,
        61.849998474121094,
        923.03125
      ],
      "min": [
        42.421875,
        20.862998962402344,
        27.375
      ],
      "type": "VEC3"
    },
    {
      "bufferView": 1,
      "byteOffset": 787344,
      "componentType": 5126,
      "count": 9516,
      "max": [
        0,
        1,
        0
      ],
      "min": [
        0,
        -1,
        0
      ],
      "type": "VEC3"
    },
    {
      "bufferView": 0,
      "byteOffset": 287688,
      "componentType": 5125,
      "count": 24174,
      "max": [
        9515
      ],
      "min": [
        0
      ],
      "type": "SCALAR"
    },
    {
      "bufferView": 1,
      "byteOffset": 901536,
      "componentType": 5126,
      "count": 10061,
      "max": [
        950.171875,
        61.849998474121094,
        1043.4375
      ],
      "min": [
        195.015625,
        1.8829994201660156,
        41
      ],
      "type": "VEC3"
    },
    {
      "bufferView": 1,
      "byteOffset": 1022268,
      "componentType": 5126,
      "count": 10061,
      "max": [
        0,
        1,
        0
      ],
      "min": [
        0,
        -1,
        0
      ],
      "type": "VEC3"
    },
    {
      "bufferView": 0,
      "byteOffset": 384384,
      "componentType": 5125,
      "count": 24768,
      "max": [
        10060
      ],
      "min": [
        0
      ],
      "type": "SCALAR"
    },
    {
      "bufferView": 1,
      "byteOffset": 1143000,
      "componentType": 5126,
      "count": 8935,
      "max": [
        986.5859375,
        61.849998474121094,
        1031.71875
      ],
      "min": [
        15.9140625,
        4.6089973449707031,
        94.96875
      ],
      "type": "VEC3"
    },
    {
      "bufferView": 1,
      "byteOffset": 1250220,
      "componentType": 5126,
      "count": 8935,
      "max": [
        0,
        1,
        0
      ],
      "min": [
        0,
        -1,
        0
      ],
      "type": "VEC3"
    },
    {
      "bufferView": 0,
      "byteOffset": 483456,
      "componentType": 5125,
      "count": 26094,
      "max": [
        8934
      ],
      "min": [
        0
      ],
      "type": "SCALAR"
    },
    {
      "bufferView": 1,
      "byteOffset": 1357440,
      "componentType": 5126,
      "count": 9364,
      "max": [
        806.65625,
        61.849998474121094,
        1039.125
      ],
      "min": [
        0,
        17.055999755859375,
        0
      ],
      "type": "VEC3"
    },
    {
      "bufferView": 1,
      "byteOffset": 1469808,
      "componentType": 5126,
      "count": 9364,
      "max": [
        0,
        1,
        0
      ],
      "min": [
        0,
        -1,
        0
      ],
      "type": "VEC3"
    },
    {
      "bufferView": 0,
      "byteOffset": 587832,
      "componentType": 5125,
      "count": 24471,
      "max": [
        9363
      ],
      "min": [
        0
      ],
      "type": "SCALAR"
    },
    {
      "bufferView": 1,
      "byteOffset": 1582176,
      "componentType": 5126,
      "count": 12907,
      "max": [
        1001.5859375,
        61.849998474121094,
        1031.71875
      ],
      "min": [
        196.9453125,
        4.6089973449707031,
        41.53125
      ],
      "type": "VEC3"
    },
    {
      "bufferView": 1,
      "byteOffset": 1737060,
      "componentType": 5126,
      "count": 12907,
      "max": [
        0.99999994039535522,
        1,
        1
      ],
      "min": [
        -1,
        -1,
        -1
      ],
      "type": "VEC3"
    },
    {
      "bufferView": 0,
      "byteOffset": 685716,
      "componentType": 5125,
      "count": 27981,
      "max": [
        12906
      ],
      "min": [
        0
      ],
      "type": "SCALAR"
    },
    {
      "bufferView": 1,
      "byteOffset": 1891944,
      "componentType": 5126,
      "count": 17544,
      "max": [
        946.0234375,
        61.849998474121094,
        1036.46875
      ],
      "min": [
        23.6328125,
        1.8829994201660156,
        0
      ],
      "type": "VEC3"
    },
    {
      "bufferView": 1,
      "byteOffset": 2102472,
      "componentType": 5126,
      "count": 17544,
      "max": [
        1,
        0,
        1
      ],
      "min": [
        -1,
        0,
        -1
      ],
      "type": "VEC3"
    },
    {
      "bufferView": 0,
      "byteOffset": 797640,
      "componentType": 5125,
      "count": 32262,
      "max": [
        17543
      ],
      "min": [
        0
      ],
      "type": "SCALAR"
    },
    {
      "bufferView": 1,
      "byteOffset": 2313000,
      "componentType": 5126,
      "count": 18060,
      "max": [
        952.4296875,
        61.849998474121094,
        1028.9375
      ],
      "min": [
        38,
        22.215999603271484,
        154.03125
      ],
      "type": "VEC3"
    },
    {
      "bufferView": 1,
      "byteOffset": 2529720,
      "componentType": 5126,
      "count": 18060,
      "max": [
        1,
        0,
        1
      ],
      "min": [
        -1,
        0,
        -1
      ],
      "type": "VEC3"
    },
    {
      "bufferView": 0,
      "byteOffset": 926688,
      "componentType": 5125,
      "count": 34866,
      "max": [
        18059
      ],
      "min": [
        0
      ],
      "type": "SCALAR"
    },
    {
      "bufferView": 1,
      "byteOffset": 2746440,
      "componentType": 5126,
      "count": 16528,
      "max": [
        995.484375,
        61.849998474121094,
        1025.03125
      ],
      "min": [
        16.0859375,
        33.5989990234375,
        126
      ],
      "type": "VEC3"
    },
    {
      "bufferView": 1,
      "byteOffset": 2944776,
      "componentType": 5126,
      "count": 16528,
      "max": [
        1,
        0,
        1
      ],
      "min": [
        -1,
        0,
        -1
      ],
      "type": "VEC3"
    },
    {
      "bufferView": 0,
      "byteOffset": 1066152,
      "componentType": 5125,
      "count": 30828,
      "max": [
        16527
      ],
      "min": [
        0
      ],
      "type": "SCALAR"
    },
    {
      "bufferView": 1,
      "byteOffset": 3143112,
      "componentType": 5126,
      "count": 19070,
      "max": [
        936.515625,
        61.849998474121094,
        1043.4375
      ],
      "min": [
        42.421875,
        0,
        41
      ],
      "type": "VEC3"
    },
    {
      "bufferView": 1,
      "byteOffset": 3371952,
      "componentType": 5126,
      "count": 19070,
      "max": [
        1,
        0,
        1
      ],
      "min": [
        -1,
        0,
        -1
      ],
      "type": "VEC3"
    },
    {
      "bufferView": 0,
      "byteOffset": 1189464,
      "componentType": 5125,
      "count": 39990,
      "max": [
        19069
      ],
      "min": [
        0
      ],
      "type": "SCALAR"
    },
    {
      "bufferView": 1,
      "byteOffset": 3600792,
      "componentType": 5126,
      "count": 18204,
      "max": [
        867.1171875,
        61.849998474121094,
        1039.125
      ],
      "min": [
        32.7421875,
        23.954998016357422,
        27.375
      ],
      "type": "VEC3"
    },
    {
      "bufferView": 1,
      "byteOffset": 3819240,
      "componentType": 5126,
      "count": 18204,
      "max": [
        1,
        0,
        1
      ],
      "min": [
        -1,
        0,
        -1
      ],
      "type": "VEC3"
    },
    {
      "bufferView": 0,
      "byteOffset": 1349424,
      "componentType": 5125,
      "count": 33228,
      "max": [
        18203
      ],
      "min": [
        0
      ],
      "type": "SCALAR"
    },
    {
      "bufferView": 1,
      "byteOffset": 4037688,
      "componentType": 5126,
      "count": 17954,
      "max": [
        950.171875,
        61.849998474121094,
        1007.875
      ],
      "min": [
        0,
        36.01300048828125,
        16.40625
      ],
      "type": "VEC3"
    },
    {
      "bufferView": 1,
      "byteOffset": 4253136,
      "componentType": 5126,
      "count": 17954,
      "max": [
        1,
        0,
        1
      ],
      "min": [
        -1,
        0,
        -1
      ],
      "type": "VEC3"
    },
    {
      "bufferView": 0,
      "byteOffset": 1482336,
      "componentType": 5125,
      "count": 32820,
      "max": [
        17953
      ],
      "min": [
        0
      ],
      "type": "SCALAR"
    },
    {
      "bufferView": 1,
      "byteOffset": 4468584,
      "componentType": 5126,
      "count": 6542,
      "max": [
        986.5859375,
        61.849998474121094,
        1013
      ],
      "min": [
        78.5,
        40.952999114990234,
        35.46875
      ],
      "type": "VEC3"
    },
    {
      "bufferView": 1,
      "byteOffset": 4547088,
      "componentType": 5126,
      "count": 6542,
      "max": [
        0.99999994039535522,
        0,
        1
      ],
      "min": [
        -0.999656081199646,
        0,
        -1
      ],
      "type": "VEC3"
    },
    {
      "bufferView": 0,
      "byteOffset": 1613616,
      "componentType": 5125,
      "count": 11370,
      "max": [
        6541
      ],
      "min": [
        0
      ],
      "type": "SCALAR"
    }
  ],
  "asset": {
    "extras": {
      "author": "Tommensink (https://sketchfab.com/Tommensink)",
      "license": "CC-BY-4.0 (http://creativecommons.org/licenses/by/4.0/)",
      "source": "https://sketchfab.com/3d-models/amsterdam-nieuwmarkt-3c161be523e440dfb305a980c995e99c",
      "title": "Amsterdam Nieuwmarkt"
    },
    "generator": "Sketchfab-6.22.0",
    "version": "2.0"
  },
  "bufferViews": [
    {
      "buffer": 0,
      "byteLength": 1659096,
      "byteOffset": 0,
      "name": "floatBufferViews",
      "target": 34963
    },
    {
      "buffer": 0,
      "byteLength": 4625592,
      "byteOffset": 1659096,
      "byteStride": 12,
      "name": "floatBufferViews",
      "target": 34962
    }
  ],
  "buffers": [
    {
      "byteLength": 6284688,
      "uri": "scene.bin"
    }
  ],
  "materials": [
    {
      "doubleSided": true,
      "name": "building",
      "pbrMetallicRoughness": {
        "baseColorFactor": [
          1,
          1,
          1,
          1
        ],
        "metallicFactor": 0,
        "roughnessFactor": 0.59999999999999998
      }
    }
  ],
  "meshes": [
    {
      "primitives": [
        {
          "attributes": {
            "NORMAL": 1,
            "POSITION": 0
          },
          "indices": 2,
          "material": 0,
          "mode": 4
        }
      ]
    },
    {
      "primitives": [
        {
          "attributes": {
            "NORMAL": 4,
            "POSITION": 3
          },
          "indices": 5,
          "material": 0,
          "mode": 4
        }
      ]
    },
    {
      "primitives": [
        {
          "attributes": {
            "NORMAL": 7,
            "POSITION": 6
          },
          "indices": 8,
          "material": 0,
          "mode": 4
        }
      ]
    },
    {
      "primitives": [
        {
          "attributes": {
            "NORMAL": 10,
            "POSITION": 9
          },
          "indices": 11,
          "material": 0,
          "mode": 4
        }
      ]
    },
    {
      "primitives": [
        {
          "attributes": {
            "NORMAL": 13,
            "POSITION": 12
          },
          "indices": 14,
          "material": 0,
          "mode": 4
        }
      ]
    },
    {
      "primitives": [
        {
          "attributes": {
            "NORMAL": 16,
            "POSITION": 15
          },
          "indices": 17,
          "material": 0,
          "mode": 4
        }
      ]
    },
    {
      "primitives": [
        {
          "attributes": {
            "NORMAL": 19,
            "POSITION": 18
          },
          "indices": 20,
          "material": 0,
          "mode": 4
        }
      ]
    },
    {
      "primitives": [
        {
          "attributes": {
            "NORMAL": 22,
            "POSITION": 21
          },
          "indices": 23,
          "material": 0,
          "mode": 4
        }
      ]
    },
    {
      "primitives": [
        {
          "attributes": {
            "NORMAL": 25,
            "POSITION": 24
          },
          "indices": 26,
          "material": 0,
          "mode": 4
        }
      ]
    },
    {
      "primitives": [
        {
          "attributes": {
            "NORMAL": 28,
            "POSITION": 27
          },
          "indices": 29,
          "material": 0,
          "mode": 4
        }
      ]
    },
    {
      "primitives": [
        {
          "attributes": {
            "NORMAL": 31,
            "POSITION": 30
          },
          "indices": 32,
          "material": 0,
          "mode": 4
        }
      ]
    },
    {
      "primitives": [
        {
          "attributes": {
            "NORMAL": 34,
            "POSITION": 33
          },
          "indices": 35,
          "material": 0,
          "mode": 4
        }
      ]
    },
    {
      "primitives": [
        {
          "attributes": {
            "NORMAL": 37,
            "POSITION": 36
          },
          "indices": 38,
          "material": 0,
          "mode": 4
        }
      ]
    },
    {
      "primitives": [
        {
          "attributes": {
            "NORMAL": 40,
            "POSITION": 39
          },
          "indices": 41,
          "material": 0,
          "mode": 4
        }
      ]
    },
    {
      "primitives": [
        {
          "attributes": {
            "NORMAL": 43,
            "POSITION": 42
          },
          "indices": 44,
          "material": 0,
          "mode": 4
        }
      ]
    }
  ],
  "nodes": [
    {
      "children": [
        1
      ],
      "name": "RootNode (gltf orientation matrix)",
      "rotation": [
        -0.70710678118654746,
        -0,
        -0,
        0.70710678118654757
      ]
    },
    {
      "children": [
        2
      ],
      "name": "RootNode (model correction matrix)"
    },
    {
      "children": [
        3
      ],
      "matrix": [
        1,
        0,
        0,
        0,
        0,
        1,
        0,
        0,
        0,
        0,
        1,
        0,
        121310.1171875,
        -61.849998474121094,
        486724.34375,
        1
      ],
      "name": "skfb_offset"
    },
    {
      "children": [
        4,
        5,
        6,
        7,
        8,
        9,
        10,
        11,
        12,
        13,
        14,
        15,
        16,
        17,
        18
      ],
      "name": ""
    },
    {
      "mesh": 0,
      "name": ""
    },
    {
      "mesh": 1,
      "name": ""
    },
    {
      "mesh": 2,
      "name": ""
    },
    {
      "mesh": 3,
      "name": ""
    },
    {
      "mesh": 4,
      "name": ""
    },
    {
      "mesh": 5,
      "name": ""
    },
    {
      "mesh": 6,
      "name": ""
    },
    {
      "mesh": 7,
      "name": ""
    },
    {
      "mesh": 8,
      "name": ""
    },
    {
      "mesh": 9,
      "name": ""
    },
    {
      "mesh": 10,
      "name": ""
    },
    {
      "mesh": 11,
      "name": ""
    },
    {
      "mesh": 12,
      "name": ""
    },
    {
      "mesh": 13,
      "name": ""
    },
    {
      "mesh": 14,
      "name": ""
    }
  ],
  "scene": 0,
  "scenes": [
    {
      "name": "OSG_Scene",
      "nodes": [
        0
      ]
    }
  ]
}

